<svg width="281" height="281" viewBox="0 0 281 281" fill="none" xmlns="http://www.w3.org/2000/svg">
<path d="M140.5 28.417C153.752 28.4172 167.095 39.2901 177.423 59.9463C187.601 80.3035 194.041 108.777 194.041 140.5C194.041 172.224 187.602 200.697 177.423 221.055C167.095 241.711 153.752 252.584 140.5 252.584C127.248 252.584 113.904 241.711 103.576 221.055C93.3976 200.697 86.958 172.224 86.958 140.5C86.9581 108.777 93.3977 80.3035 103.576 59.9463C113.904 39.2899 127.248 28.417 140.5 28.417Z" stroke="#404040" stroke-width="10"/>
<path d="M237.567 84.4567C244.192 95.933 241.448 112.925 228.723 132.197C216.182 151.191 194.744 171.004 167.271 186.866C139.797 202.728 111.918 211.388 89.1991 212.752C66.1463 214.135 50.0585 208.016 43.4325 196.54C36.8067 185.064 39.5509 168.071 52.2758 148.799C64.8164 129.805 86.2556 109.991 113.729 94.1294C141.202 78.2678 169.081 69.6081 191.8 68.2443C214.853 66.8606 230.941 72.9804 237.567 84.4567Z" stroke="#404040" stroke-width="10"/>
<path d="M237.567 196.54C244.192 185.064 241.448 168.072 228.723 148.8C216.182 129.806 194.744 109.993 167.271 94.131C139.797 78.2692 111.918 69.6091 89.1991 68.2454C66.1463 66.8617 50.0585 72.9808 43.4325 84.4569C36.8067 95.9332 39.5509 112.926 52.2758 132.199C64.8164 151.192 86.2556 171.006 113.729 186.868C141.202 202.729 169.081 211.389 191.8 212.753C214.853 214.136 230.941 208.017 237.567 196.54Z" stroke="#404040" stroke-width="10"/>
</svg>
