<svg width="281" height="281" viewBox="0 0 281 281" fill="none" xmlns="http://www.w3.org/2000/svg">
<path d="M35.125 175.627V196.7C35.125 209.814 35.125 216.367 37.6773 221.376C39.9223 225.782 43.502 229.372 47.9081 231.617C52.9123 234.166 59.4666 234.166 72.5555 234.166H245.877M35.125 175.627V58.5415M35.125 175.627L80.2418 138.03L80.2792 138C88.4408 131.199 92.5296 127.792 96.9631 126.408C102.2 124.773 107.842 125.031 112.91 127.134C117.206 128.916 120.973 132.683 128.508 140.217L128.583 140.293C136.235 147.944 140.071 151.78 144.436 153.559C149.602 155.663 155.352 155.844 160.647 154.088C165.135 152.599 169.235 149.018 177.432 141.846L245.875 81.9582" stroke="#404040" stroke-width="10" stroke-linecap="round" stroke-linejoin="round"/>
</svg>
