<svg width="281" height="281" viewBox="0 0 281 281" fill="none" xmlns="http://www.w3.org/2000/svg">
<path d="M46.8337 199.042H40.9795C31.28 199.042 23.417 206.905 23.417 216.604C23.417 226.304 31.28 234.167 40.9795 234.167H240.021C249.721 234.167 257.584 226.304 257.584 216.604C257.584 206.905 249.721 199.042 240.021 199.042H234.167M46.8337 199.042H234.167M46.8337 199.042V96.0107C46.8337 82.8961 46.8337 76.334 49.3859 71.3249C51.631 66.9187 55.2107 63.339 59.6168 61.094C64.6259 58.5417 71.1881 58.5417 84.3026 58.5417H196.703C209.817 58.5417 216.365 58.5417 221.374 61.094C225.781 63.339 229.372 66.9187 231.617 71.3249C234.167 76.3291 234.167 82.8833 234.167 95.9722V199.042" stroke="#404040" stroke-width="10" stroke-linecap="round" stroke-linejoin="round"/>
</svg>
