<svg width="281" height="281" viewBox="0 0 281 281" fill="none" xmlns="http://www.w3.org/2000/svg">
<path d="M199.042 234.167C199.042 214.768 172.832 199.042 140.5 199.042C108.168 199.042 81.9583 214.768 81.9583 234.167M245.875 199.046C245.875 184.643 231.426 172.264 210.75 166.844M35.125 199.046C35.125 184.643 49.5742 172.264 70.25 166.844M210.75 119.848C217.936 113.416 222.458 104.07 222.458 93.6667C222.458 74.2677 206.732 58.5417 187.333 58.5417C178.337 58.5417 170.131 61.9237 163.917 67.4857M70.25 119.848C63.064 113.416 58.5417 104.07 58.5417 93.6667C58.5417 74.2677 74.2677 58.5417 93.6667 58.5417C102.663 58.5417 110.869 61.9237 117.083 67.4857M140.5 163.917C121.101 163.917 105.375 148.191 105.375 128.792C105.375 109.393 121.101 93.6667 140.5 93.6667C159.899 93.6667 175.625 109.393 175.625 128.792C175.625 148.191 159.899 163.917 140.5 163.917Z" stroke="#404040" stroke-width="10" stroke-linecap="round" stroke-linejoin="round"/>
</svg>
