<svg width="281" height="281" viewBox="0 0 281 281" fill="none" xmlns="http://www.w3.org/2000/svg">
<path d="M117.086 46.8332H84.3024C71.1879 46.8332 64.6257 46.8332 59.6166 49.3854C55.2105 51.6305 51.6308 55.2102 49.3858 59.6163C46.8335 64.6254 46.8335 71.1876 46.8335 84.3021V196.702C46.8335 209.817 46.8335 216.371 49.3858 221.38C51.6308 225.786 55.2105 229.372 59.6166 231.617C64.6208 234.166 71.1751 234.166 84.264 234.166H196.736C209.825 234.166 216.37 234.166 221.374 231.617C225.78 229.372 229.372 225.782 231.617 221.376C234.167 216.372 234.167 209.825 234.167 196.736V163.917M187.333 58.5415L117.083 128.792V163.917H152.208L222.458 93.6665M187.333 58.5415L222.458 23.4165L257.583 58.5415L222.458 93.6665M187.333 58.5415L222.458 93.6665" stroke="#404040" stroke-width="10" stroke-linecap="round" stroke-linejoin="round"/>
</svg>
