<svg width="281" height="281" viewBox="0 0 281 281" fill="none" xmlns="http://www.w3.org/2000/svg">
<path d="M46.8333 117.083L118.344 171.085L118.367 171.104C126.308 176.927 130.28 179.84 134.631 180.966C138.477 181.96 142.52 181.96 146.366 180.966C150.72 179.839 154.705 176.918 162.659 171.085L234.167 117.083M231.827 105.837L166.272 53.3499C158.132 46.8328 154.059 43.5754 149.533 42.2818C145.539 41.1405 141.31 41.08 137.286 42.1103C132.726 43.278 128.568 46.4204 120.251 52.7096L49.9891 105.839C44.5362 109.963 41.8132 112.026 39.8472 114.632C38.1059 116.94 36.8083 119.55 36.0177 122.331C35.125 125.47 35.125 128.889 35.125 135.726V208.409C35.125 221.524 35.125 228.084 37.6773 233.094C39.9223 237.5 43.502 241.079 47.9081 243.324C52.9123 245.874 59.4666 245.874 72.5555 245.874H208.445C221.533 245.874 228.078 245.874 233.082 243.324C237.489 241.079 241.08 237.497 243.325 233.091C245.875 228.087 245.875 221.538 245.875 208.449V134.956C245.875 128.432 245.875 125.151 245.04 122.119C244.296 119.416 243.06 116.868 241.415 114.597C239.558 112.034 236.987 109.968 231.827 105.837Z" stroke="#404040" stroke-width="10" stroke-linecap="round" stroke-linejoin="round"/>
</svg>
