<svg width="281" height="281" viewBox="0 0 281 281" fill="none" xmlns="http://www.w3.org/2000/svg">
<path d="M109.334 187.221C146.291 185.169 175.625 154.553 175.625 117.083C175.625 78.285 144.173 46.833 105.375 46.833C66.577 46.833 35.125 78.285 35.125 117.083C35.125 130.907 39.1168 143.798 46.0124 154.666L41.0478 169.56L41.0399 169.582C39.1383 175.287 38.1871 178.14 38.8645 180.04C39.4547 181.695 40.7647 182.999 42.4198 183.59C44.3128 184.265 47.1465 183.32 52.8127 181.431L52.8933 181.407L67.7917 176.442C78.6601 183.338 91.5516 187.331 105.376 187.331C106.704 187.331 108.024 187.294 109.334 187.221ZM109.334 187.221C109.335 187.224 109.333 187.218 109.334 187.221ZM109.334 187.221C118.946 214.565 144.997 234.168 175.627 234.168C189.451 234.168 202.339 230.172 213.207 223.276L228.102 228.24L228.131 228.246C233.835 230.147 236.694 231.1 238.593 230.423C240.248 229.833 241.541 228.528 242.132 226.873C242.81 224.971 241.861 222.114 239.955 216.394L234.99 201.5L236.653 198.744C242.524 188.48 245.869 176.588 245.869 163.916C245.869 125.118 214.423 93.6663 175.625 93.6663L172.995 93.7148L171.669 93.7796" stroke="#404040" stroke-width="10" stroke-linecap="round" stroke-linejoin="round"/>
</svg>
