<svg width="281" height="281" viewBox="0 0 281 281" fill="none" xmlns="http://www.w3.org/2000/svg">
<path d="M131.54 27.7947C127.237 29.5772 123.379 33.4349 115.664 41.1498C107.951 48.863 104.091 52.7224 102.309 57.0251C99.9324 62.7629 99.9324 69.2104 102.309 74.9482C104.092 79.2515 107.949 83.109 115.664 90.8241C123.375 98.5349 127.237 102.397 131.539 104.179C137.277 106.556 143.725 106.556 149.463 104.179C153.766 102.397 157.623 98.5393 165.338 90.8242C173.054 83.1091 176.9 79.2515 178.682 74.9482C181.059 69.2104 181.059 62.7629 178.682 57.0251C176.9 52.7218 173.054 48.8649 165.338 41.1498C157.623 33.4348 153.766 29.5772 149.463 27.7947C143.725 25.418 137.278 25.418 131.54 27.7947Z" stroke="#404040" stroke-width="10" stroke-linecap="round" stroke-linejoin="round"/>
<path d="M57.025 102.304C52.7217 104.086 48.8641 107.944 41.149 115.659C33.4361 123.372 29.5764 127.232 27.7942 131.534C25.4176 137.272 25.4176 143.72 27.7942 149.457C29.5767 153.761 33.4343 157.618 41.1493 165.333C48.86 173.044 52.7226 176.906 57.0247 178.688C62.7624 181.065 69.2099 181.065 74.9477 178.688C79.251 176.906 83.1085 173.048 90.8236 165.333C98.5387 157.618 102.385 153.761 104.167 149.457C106.544 143.72 106.544 137.272 104.167 131.534C102.385 127.231 98.5388 123.374 90.8236 115.659C83.1086 107.944 79.251 104.086 74.9477 102.304C69.2099 99.9272 62.7627 99.9272 57.025 102.304Z" stroke="#404040" stroke-width="10" stroke-linecap="round" stroke-linejoin="round"/>
<path d="M190.179 115.659C182.466 123.372 178.606 127.232 176.824 131.534C174.447 137.272 174.447 143.72 176.824 149.457C178.606 153.761 182.464 157.618 190.179 165.333C197.89 173.044 201.752 176.907 206.054 178.688C211.792 181.065 218.24 181.065 223.977 178.688C228.281 176.906 232.138 173.048 239.853 165.333C247.568 157.618 251.415 153.761 253.197 149.457C255.574 143.72 255.574 137.272 253.197 131.534C251.415 127.231 247.568 123.374 239.853 115.659C232.138 107.944 228.281 104.086 223.977 102.304C218.24 99.9272 211.792 99.9272 206.055 102.304C201.751 104.086 197.894 107.944 190.179 115.659Z" stroke="#404040" stroke-width="10" stroke-linecap="round" stroke-linejoin="round"/>
<path d="M131.54 176.819C127.237 178.601 123.379 182.459 115.664 190.174C107.951 197.887 104.091 201.746 102.309 206.049C99.9324 211.787 99.9324 218.234 102.309 223.972C104.092 228.275 107.949 232.133 115.664 239.848C123.375 247.559 127.237 251.421 131.539 253.203C137.277 255.58 143.725 255.58 149.463 253.203C153.766 251.421 157.623 247.563 165.338 239.848C173.054 232.133 176.9 228.275 178.682 223.972C181.059 218.234 181.059 211.787 178.682 206.049C176.9 201.746 173.054 197.889 165.338 190.174C157.623 182.459 153.766 178.601 149.463 176.819C143.725 174.442 137.278 174.442 131.54 176.819Z" stroke="#404040" stroke-width="10" stroke-linecap="round" stroke-linejoin="round"/>
</svg>
