<svg width="281" height="281" viewBox="0 0 281 281" fill="none" xmlns="http://www.w3.org/2000/svg">
<path d="M35.125 70.2499H35.3497M35.3497 70.2499H245.651M35.3497 70.2499C35.125 73.9307 35.125 78.4681 35.125 84.3022V196.702C35.125 209.817 35.125 216.365 37.6773 221.374C39.9223 225.78 43.502 229.372 47.9081 231.617C52.9124 234.167 59.4667 234.167 72.5559 234.167L208.445 234.167C221.533 234.167 228.078 234.167 233.082 231.617C237.489 229.372 241.08 225.78 243.325 221.374C245.875 216.37 245.875 209.825 245.875 196.736L245.875 84.2637C245.875 78.4482 245.875 73.9226 245.651 70.2499M35.3497 70.2499C35.6301 65.6566 36.2604 62.3971 37.6773 59.6164C39.9223 55.2102 43.502 51.6306 47.9081 49.3855C52.9172 46.8333 59.4794 46.8333 72.594 46.8333H208.411C221.525 46.8333 228.073 46.8333 233.082 49.3855C237.489 51.6305 241.08 55.2102 243.325 59.6164C244.742 62.3971 245.372 65.6566 245.651 70.2499M245.651 70.2499H245.875M175.625 128.792L128.792 175.625L105.375 152.208" stroke="#404040" stroke-width="10" stroke-linecap="round" stroke-linejoin="round"/>
</svg>
