<svg width="221" height="221" viewBox="0 0 221 221" fill="none" xmlns="http://www.w3.org/2000/svg">
<path d="M168.917 215.75C168.917 183.418 142.707 157.208 110.375 157.208C78.0433 157.208 51.8333 183.418 51.8333 215.75M168.917 215.75H178.32C191.408 215.75 197.953 215.75 202.957 213.2C207.364 210.955 210.955 207.364 213.2 202.957C215.75 197.953 215.75 191.408 215.75 178.32V42.4305C215.75 29.3416 215.75 22.7873 213.2 17.7831C210.955 13.377 207.364 9.7973 202.957 7.55226C197.948 5 191.4 5 178.286 5H42.469C29.3544 5 22.7922 5 17.7831 7.55226C13.377 9.7973 9.7973 13.377 7.55226 17.7831C5 22.7922 5 29.3544 5 42.469V178.286C5 191.4 5 197.948 7.55226 202.957C9.7973 207.364 13.377 210.955 17.7831 213.2C22.7873 215.75 29.3416 215.75 42.4305 215.75H51.8333M168.917 215.75H51.8333M110.375 122.083C90.976 122.083 75.25 106.357 75.25 86.9583C75.25 67.5593 90.976 51.8333 110.375 51.8333C129.774 51.8333 145.5 67.5593 145.5 86.9583C145.5 106.357 129.774 122.083 110.375 122.083Z" stroke="#404040" stroke-width="10" stroke-linecap="round" stroke-linejoin="round"/>
</svg>
