<svg width="281" height="281" viewBox="0 0 281 281" fill="none" xmlns="http://www.w3.org/2000/svg">
<path d="M105.375 245.875H175.625M140.5 35.125C101.702 35.125 70.25 66.577 70.25 105.375C70.25 119.595 74.4749 132.828 81.7378 143.887C92.9065 160.894 98.4859 169.392 99.2108 170.662C105.659 181.959 104.472 177.975 105.284 190.958C105.375 192.417 105.375 194.626 105.375 199.042C105.375 205.508 110.617 210.75 117.083 210.75L163.917 210.75C170.383 210.75 175.625 205.508 175.625 199.042C175.625 194.626 175.625 192.417 175.716 190.958C176.528 177.975 175.334 181.959 181.782 170.662C182.507 169.392 188.096 160.894 199.265 143.887C206.528 132.828 210.752 119.595 210.752 105.375C210.752 66.577 179.298 35.125 140.5 35.125Z" stroke="#404040" stroke-width="10" stroke-linecap="round" stroke-linejoin="round"/>
</svg>
