<svg width="281" height="281" viewBox="0 0 281 281" fill="none" xmlns="http://www.w3.org/2000/svg">
<path d="M238.264 104.473L233.977 102.088C233.311 101.717 232.983 101.531 232.662 101.339C229.464 99.4233 226.769 96.7771 224.803 93.6111C224.605 93.2925 224.418 92.9584 224.037 92.2982C223.656 91.6387 223.463 91.3046 223.286 90.9738C221.522 87.68 220.568 84.0093 220.51 80.2733C220.505 79.8977 220.506 79.514 220.519 78.751L220.603 73.7719C220.737 65.8041 220.804 61.8078 219.684 58.2213C218.69 55.0357 217.026 52.1015 214.804 49.6114C212.292 46.7967 208.815 44.7886 201.855 40.7776L196.073 37.4459C189.132 33.446 185.66 31.4454 181.975 30.6827C178.715 30.008 175.351 30.0392 172.102 30.7685C168.436 31.5915 165.008 33.6443 158.155 37.7474L158.116 37.766L153.974 40.2466C153.318 40.6388 152.987 40.8365 152.659 41.019C149.4 42.8305 145.763 43.8322 142.037 43.9518C141.662 43.9638 141.28 43.9638 140.516 43.9638C139.757 43.9638 139.358 43.9638 138.984 43.9518C135.25 43.8317 131.605 42.8246 128.342 41.0056C128.013 40.8223 127.687 40.623 127.031 40.2289L122.862 37.726C115.962 33.584 112.508 31.5099 108.821 30.6827C105.559 29.9509 102.183 29.9307 98.9114 30.6141C95.2168 31.3858 91.7442 33.4013 84.7991 37.4322L84.7682 37.4459L79.0585 40.7597L78.9953 40.7984C72.1126 44.793 68.663 46.7951 66.1724 49.5984C63.9624 52.0859 62.3104 55.0155 61.3217 58.1927C60.2041 61.7841 60.2636 65.7889 60.3983 73.7943L60.482 78.7664C60.4946 79.5193 60.5166 79.8934 60.5111 80.2638C60.4557 84.0074 59.4889 87.6856 57.7196 90.9852C57.5446 91.3115 57.3561 91.6379 56.9796 92.2897C56.6028 92.942 56.4203 93.2664 56.2249 93.5812C54.2494 96.7641 51.5422 99.4258 48.3247 101.344C48.0064 101.534 47.671 101.717 47.012 102.082L42.7786 104.428C35.7353 108.331 32.2144 110.284 29.6525 113.064C27.3861 115.523 25.674 118.44 24.6289 121.617C23.4475 125.208 23.4485 129.234 23.4667 137.287L23.4817 143.868C23.4999 151.867 23.5248 155.864 24.7088 159.431C25.7563 162.586 27.4559 165.486 29.7097 167.93C32.2571 170.693 35.743 172.634 42.7329 176.522L46.9285 178.856C47.6425 179.254 48.0018 179.45 48.3461 179.657C51.5345 181.577 54.2205 184.231 56.1792 187.396C56.3908 187.738 56.5939 188.093 57.0001 188.802C57.4013 189.503 57.6065 189.854 57.7921 190.205C59.5094 193.456 60.4288 197.069 60.4915 200.745C60.4983 201.142 60.4925 201.544 60.4789 202.352L60.3983 207.123C60.2627 215.156 60.2036 219.177 61.3278 222.778C62.3224 225.964 63.9847 228.898 66.2067 231.388C68.7185 234.203 72.2005 236.21 79.1614 240.221L84.9418 243.552C91.8831 247.552 95.3525 249.55 99.0376 250.313C102.298 250.987 105.664 250.961 108.912 250.232C112.584 249.408 116.024 247.348 122.896 243.233L127.039 240.752C127.694 240.36 128.026 240.163 128.354 239.981C131.613 238.169 135.246 237.162 138.972 237.043C139.348 237.031 139.73 237.031 140.494 237.031C141.259 237.031 141.641 237.031 142.017 237.043C145.751 237.163 149.407 238.173 152.67 239.992C152.957 240.152 153.245 240.325 153.75 240.628L158.154 243.272C165.054 247.415 168.502 249.483 172.189 250.31C175.45 251.042 178.829 251.072 182.101 250.388C185.794 249.617 189.274 247.597 196.215 243.569L202.011 240.205C208.898 236.208 212.351 234.204 214.843 231.399C217.053 228.912 218.707 225.984 219.696 222.806C220.805 219.241 220.738 215.267 220.605 207.377L220.519 202.232C220.506 201.479 220.505 201.104 220.51 200.734C220.566 196.99 221.517 193.309 223.286 190.01C223.461 189.684 223.651 189.355 224.026 188.705C224.403 188.053 224.598 187.728 224.793 187.413C226.769 184.23 229.479 181.566 232.696 179.648C233.01 179.46 233.334 179.281 233.977 178.924L234 178.914L238.233 176.568C245.276 172.665 248.804 170.71 251.366 167.93C253.632 165.471 255.342 162.558 256.387 159.381C257.562 155.811 257.552 151.808 257.534 143.85L257.519 137.127C257.501 129.128 257.491 125.132 256.307 121.565C255.26 118.41 253.55 115.51 251.297 113.066C248.752 110.306 245.261 108.364 238.285 104.483L238.264 104.473Z" stroke="#404040" stroke-width="10" stroke-linecap="round" stroke-linejoin="round"/>
<path d="M93.671 140.5C93.671 166.365 114.639 187.333 140.504 187.333C166.37 187.333 187.338 166.365 187.338 140.5C187.338 114.634 166.37 93.6665 140.504 93.6665C114.639 93.6665 93.671 114.634 93.671 140.5Z" stroke="#404040" stroke-width="10" stroke-linecap="round" stroke-linejoin="round"/>
</svg>
