<svg width="281" height="281" viewBox="0 0 281 281" fill="none" xmlns="http://www.w3.org/2000/svg">
<path d="M76.1042 245.875H239.676C243.1 245.875 245.878 243.101 245.878 239.678L245.875 170.114M93.438 242.027L241.685 172.898C244.787 171.451 246.129 167.763 244.682 164.66L215.284 101.619C213.837 98.5165 210.148 97.1693 207.045 98.6161L140.854 129.484M115.7 215.49C109.842 237.351 87.3716 250.324 65.5106 244.466C43.6496 238.609 30.6737 216.141 36.5313 194.28L78.8669 36.28C79.7529 32.9733 83.1488 31.0103 86.4555 31.8963L153.649 49.8977C156.956 50.7837 158.918 54.1817 158.032 57.4884L115.7 215.49ZM76.1042 206.068H76.1276L76.127 206.091L76.1042 206.091V206.068Z" stroke="#404040" stroke-width="10" stroke-linecap="round" stroke-linejoin="round"/>
</svg>
