<svg width="281" height="281" viewBox="0 0 281 281" fill="none" xmlns="http://www.w3.org/2000/svg">
<path d="M70.25 87.8147V84.3022C70.25 71.1876 70.25 64.6255 72.8023 59.6164C75.0473 55.2102 78.627 51.6306 83.0331 49.3855C88.0422 46.8333 94.6044 46.8333 107.719 46.8333H208.411C221.525 46.8333 228.073 46.8333 233.082 49.3855C237.489 51.6306 241.08 55.2102 243.325 59.6164C245.875 64.6206 245.875 71.1748 245.875 84.2637V161.611C245.875 174.7 245.875 181.245 243.325 186.249C241.08 190.655 237.491 194.247 233.085 196.492C228.081 199.042 221.533 199.042 208.445 199.042H122.937M35.125 196.702V131.136C35.125 118.021 35.125 111.459 37.6773 106.45C39.9223 102.044 43.502 98.4639 47.9081 96.2188C52.9172 93.6666 59.4794 93.6666 72.594 93.6666H79.6189C92.7335 93.6666 99.2817 93.6666 104.291 96.2188C108.697 98.4639 112.289 102.044 114.534 106.45C117.083 111.454 117.083 118.008 117.083 131.097V196.736C117.083 209.825 117.083 216.37 114.534 221.374C112.289 225.78 108.697 229.372 104.291 231.617C99.2865 234.167 92.7418 234.167 79.6528 234.167H72.5555C59.4666 234.167 52.9123 234.167 47.9081 231.617C43.502 229.372 39.9223 225.78 37.6773 221.374C35.125 216.365 35.125 209.817 35.125 196.702Z" stroke="#404040" stroke-width="10" stroke-linecap="round" stroke-linejoin="round"/>
</svg>
