<svg width="211" height="164" viewBox="0 0 211 164" fill="none" xmlns="http://www.w3.org/2000/svg">
<path d="M45.9318 121.585H125.188V89.9727L164.818 121.585V42.3315L125.188 73.944V42.3315H45.9318V121.585ZM18.9148 163.917C13.5251 163.917 9.02517 162.112 5.4151 158.502C1.80503 154.891 0 150.392 0 145.002V18.9148C0 13.5251 1.80503 9.02517 5.4151 5.4151C9.02517 1.80503 13.5251 0 18.9148 0H191.835C197.225 0 201.725 1.80503 205.335 5.4151C208.945 9.02517 210.75 13.5251 210.75 18.9148V145.002C210.75 150.392 208.945 154.891 205.335 158.502C201.725 162.112 197.225 163.917 191.835 163.917H18.9148ZM18.9148 152.208H191.835C193.937 152.208 195.664 151.533 197.016 150.183C198.366 148.83 199.042 147.104 199.042 145.002V18.9148C199.042 16.8132 198.366 15.0862 197.016 13.7339C195.664 12.3835 193.937 11.7083 191.835 11.7083H18.9148C16.8132 11.7083 15.0862 12.3835 13.7339 13.7339C12.3835 15.0862 11.7083 16.8132 11.7083 18.9148V145.002C11.7083 147.104 12.3835 148.83 13.7339 150.183C15.0862 151.533 16.8132 152.208 18.9148 152.208Z" fill="#404040"/>
</svg>
