<svg width="281" height="281" viewBox="0 0 281 281" fill="none" xmlns="http://www.w3.org/2000/svg">
<path d="M35.125 70.2497H35.3497M35.3497 70.2497H245.651M35.3497 70.2497C35.125 73.9305 35.125 78.4679 35.125 84.302V196.702C35.125 209.817 35.125 216.365 37.6773 221.374C39.9223 225.78 43.502 229.372 47.9081 231.617C52.9124 234.166 59.4667 234.166 72.5559 234.166L208.445 234.166C221.533 234.166 228.078 234.166 233.082 231.617C237.489 229.372 241.08 225.78 243.325 221.374C245.875 216.369 245.875 209.825 245.875 196.735L245.875 84.2635C245.875 78.4479 245.875 73.9224 245.651 70.2497M35.3497 70.2497C35.6301 65.6563 36.2604 62.3969 37.6773 59.6161C39.9223 55.21 43.502 51.6303 47.9081 49.3853C52.9172 46.833 59.4794 46.833 72.594 46.833H208.411C221.525 46.833 228.073 46.833 233.082 49.3853C237.489 51.6303 241.08 55.21 243.325 59.6161C244.742 62.3969 245.372 65.6563 245.651 70.2497M245.651 70.2497H245.875M163.917 128.791L187.333 152.208L163.917 175.625M117.083 175.625L93.6667 152.208L117.083 128.791" stroke="#404040" stroke-width="10" stroke-linecap="round" stroke-linejoin="round"/>
</svg>
