<svg width="281" height="281" viewBox="0 0 281 281" fill="none" xmlns="http://www.w3.org/2000/svg">
<path d="M81.9585 72.594V208.411C81.9585 221.525 81.9585 228.079 84.5108 233.088C86.7558 237.494 90.3355 241.08 94.7416 243.325C99.7458 245.875 106.3 245.875 119.389 245.875H161.611C174.7 245.875 181.245 245.875 186.249 243.325C190.655 241.08 194.247 237.494 196.492 233.088C199.042 228.084 199.042 221.539 199.042 208.45V72.5555C199.042 59.4666 199.042 52.9123 196.492 47.9081C194.247 43.502 190.655 39.9223 186.249 37.6773C181.24 35.125 174.692 35.125 161.577 35.125H119.427C106.313 35.125 99.7507 35.125 94.7416 37.6773C90.3355 39.9223 86.7558 43.502 84.5108 47.9081C81.9585 52.9172 81.9585 59.4794 81.9585 72.594Z" stroke="#404040" stroke-width="10" stroke-linecap="round" stroke-linejoin="round"/>
</svg>
