<svg width="281" height="281" viewBox="0 0 281 281" fill="none" xmlns="http://www.w3.org/2000/svg">
<path d="M199.042 175.625H140.5M81.9583 117.083L117.083 146.354L81.9583 175.625M35.125 184.994V96.0105C35.125 82.8959 35.125 76.3337 37.6773 71.3246C39.9223 66.9185 43.502 63.3388 47.9081 61.0938C52.9172 58.5415 59.4794 58.5415 72.594 58.5415H208.411C221.525 58.5415 228.073 58.5415 233.082 61.0938C237.489 63.3388 241.08 66.9185 243.325 71.3246C245.875 76.3288 245.875 82.8831 245.875 95.972V185.028C245.875 198.117 245.875 204.661 243.325 209.666C241.08 214.072 237.489 217.663 233.082 219.908C228.078 222.458 221.533 222.458 208.445 222.458H72.5555C59.4666 222.458 52.9123 222.458 47.9081 219.908C43.502 217.663 39.9223 214.072 37.6773 209.666C35.125 204.656 35.125 198.108 35.125 184.994Z" stroke="#404040" stroke-width="10" stroke-linecap="round" stroke-linejoin="round"/>
</svg>
