<svg width="40" height="40" viewBox="0 0 40 40" fill="none" xmlns="http://www.w3.org/2000/svg">
<path d="M3.40105 37.3333C2.43193 37.3333 1.62281 36.9222 0.973684 36.1C0.324561 35.2778 0 34.2529 0 33.0253V4.308C0 3.08044 0.324561 2.05556 0.973684 1.23333C1.62281 0.411111 2.43193 0 3.40105 0L6.55895 8H12.8747L9.71684 0H13.9274L17.0853 8H23.4011L20.2432 0H24.4537L27.6116 8H33.9274L30.7695 0H34.4937C35.4628 0 36.2719 0.411111 36.9211 1.23333C37.5702 2.05556 37.8947 3.08044 37.8947 4.308V12.872H35.7895V10.6667H2.10526V33.0253C2.10526 33.504 2.22667 33.8973 2.46947 34.2053C2.71263 34.5129 3.02316 34.6667 3.40105 34.6667H18.6237V37.3333H3.40105ZM23.6437 40V34.108L34.8705 19.954C35.0782 19.6904 35.2942 19.5127 35.5184 19.4207C35.7423 19.3282 35.9663 19.282 36.1905 19.282C36.4225 19.282 36.6572 19.3393 36.8947 19.454C37.1323 19.5682 37.3414 19.74 37.5221 19.9693L39.4695 22.4873C39.6425 22.7504 39.774 23.024 39.8642 23.308C39.9547 23.5916 40 23.8751 40 24.1587C40 24.4427 39.9568 24.7291 39.8705 25.018C39.7842 25.3069 39.6505 25.5829 39.4695 25.846L28.2958 40H23.6437ZM25.5063 37.6413H27.5063L34.8058 28.3793L33.8179 27.1127L32.8584 25.81L25.5063 35.108V37.6413ZM33.8179 27.1127L32.8584 25.81L34.8058 28.3793L33.8179 27.1127Z" fill="#85C1BE"/>
</svg>
