<svg width="50" height="50" viewBox="0 0 50 50" fill="none" xmlns="http://www.w3.org/2000/svg">
<path d="M18.75 43.75H31.25M25 6.25C18.0964 6.25 12.5 11.8464 12.5 18.75C12.5 21.2802 13.2518 23.6348 14.5441 25.6027C16.5314 28.6288 17.5242 30.1409 17.6532 30.3669C18.8006 32.3771 18.5893 31.6681 18.7337 33.9783C18.75 34.238 18.75 34.631 18.75 35.4167C18.75 36.5673 19.6827 37.5 20.8333 37.5L29.1667 37.5C30.3173 37.5 31.25 36.5673 31.25 35.4167C31.25 34.631 31.25 34.238 31.2662 33.9783C31.4106 31.6681 31.1982 32.3771 32.3456 30.3669C32.4746 30.1409 33.469 28.6288 35.4563 25.6027C36.7487 23.6348 37.5004 21.2802 37.5004 18.75C37.5004 11.8464 31.9036 6.25 25 6.25Z" stroke="#85C1BE" stroke-width="3" stroke-linecap="round" stroke-linejoin="round"/>
</svg>
