<svg width="50" height="50" viewBox="0 0 50 50" fill="none" xmlns="http://www.w3.org/2000/svg">
<path d="M7.47262 28.7059C11.1798 32.3913 17.645 37.4998 25.0005 37.4998C32.356 37.4998 38.82 32.3913 42.5272 28.7059C43.5048 27.7339 43.9954 27.2462 44.3067 26.2919C44.5288 25.611 44.5288 24.389 44.3067 23.7081C43.9954 22.7538 43.5049 22.266 42.5271 21.294C38.82 17.6085 32.356 12.5 25.0005 12.5C17.645 12.5 11.1798 17.6085 7.47262 21.294C6.49416 22.2667 6.00488 22.7534 5.69345 23.7081C5.47132 24.389 5.47132 25.611 5.69345 26.2919C6.00488 27.2466 6.49416 27.7331 7.47262 28.7059Z" stroke="#85C1BE" stroke-width="3" stroke-linecap="round" stroke-linejoin="round"/>
<path d="M20.8335 25C20.8335 27.3012 22.6989 29.1667 25.0001 29.1667C27.3013 29.1667 29.1668 27.3012 29.1668 25C29.1668 22.6988 27.3013 20.8333 25.0001 20.8333C22.6989 20.8333 20.8335 22.6988 20.8335 25Z" stroke="#85C1BE" stroke-width="3" stroke-linecap="round" stroke-linejoin="round"/>
</svg>
