<svg width="50" height="50" viewBox="0 0 50 50" fill="none" xmlns="http://www.w3.org/2000/svg">
<path d="M15.6453 41.2537C18.3984 42.8415 21.5928 43.7499 24.9993 43.7499C35.3546 43.7499 43.75 35.3553 43.75 25C43.75 14.6447 35.3553 6.25 25 6.25C14.6447 6.25 6.25 14.6447 6.25 25C6.25 28.4065 7.15842 31.6008 8.74623 34.3539L8.75238 34.3646C8.90516 34.6295 8.98221 34.763 9.0171 34.8893C9.05001 35.0083 9.05921 35.1154 9.05078 35.2386C9.04172 35.3711 8.99709 35.5084 8.90559 35.7829L7.30387 40.588L7.30186 40.5943C6.96391 41.6082 6.79494 42.1151 6.91538 42.4529C7.0204 42.7474 7.25351 42.9798 7.54801 43.0848C7.88503 43.205 8.38968 43.0368 9.39905 42.7003L9.41162 42.6957L14.2168 41.094C14.4904 41.0028 14.6295 40.9565 14.7616 40.9475C14.8849 40.939 14.9912 40.9502 15.1103 40.9831C15.2368 41.0181 15.3705 41.0951 15.6367 41.2487L15.6453 41.2537Z" stroke="#85C1BE" stroke-width="3" stroke-linecap="round" stroke-linejoin="round"/>
</svg>
