<svg width="50" height="50" viewBox="0 0 50 50" fill="none" xmlns="http://www.w3.org/2000/svg">
<path d="M18.75 18.75V12.9171C18.75 10.5835 18.75 9.41588 19.2041 8.52458C19.6036 7.74057 20.2406 7.10361 21.0246 6.70414C21.9159 6.25 23.0835 6.25 25.4171 6.25H37.0837C39.4173 6.25 40.5835 6.25 41.4748 6.70414C42.2588 7.10361 42.8968 7.74057 43.2963 8.52458C43.7504 9.41588 43.7504 10.5827 43.7504 12.9162V24.5829C43.7504 26.9165 43.7504 28.0833 43.2963 28.9746C42.8968 29.7586 42.2582 30.3968 41.4741 30.7963C40.5837 31.25 39.4188 31.25 37.0898 31.25H31.25M18.75 18.75H12.9171C10.5835 18.75 9.41588 18.75 8.52458 19.2041C7.74057 19.6036 7.10361 20.2406 6.70414 21.0246C6.25 21.9159 6.25 23.0835 6.25 25.4171V37.0837C6.25 39.4173 6.25 40.5835 6.70414 41.4748C7.10361 42.2588 7.74057 42.8968 8.52458 43.2963C9.415 43.75 10.5812 43.75 12.9102 43.75H24.5907C26.9197 43.75 28.0843 43.75 28.9748 43.2963C29.7588 42.8968 30.3968 42.2581 30.7963 41.4741C31.25 40.5837 31.25 39.4188 31.25 37.0898V31.25M18.75 18.75H24.5837C26.9173 18.75 28.0835 18.75 28.9748 19.2041C29.7588 19.6036 30.3968 20.2406 30.7963 21.0246C31.25 21.915 31.25 23.0813 31.25 25.4103L31.25 31.25" stroke="#85C1BE" stroke-width="3" stroke-linecap="round" stroke-linejoin="round"/>
</svg>
