<svg width="50" height="50" viewBox="0 0 50 50" fill="none" xmlns="http://www.w3.org/2000/svg">
<path d="M21.4743 28.5258L31.5705 18.4297M41.8984 12.2682L33.3762 39.9652C32.6125 42.4473 32.2303 43.689 31.5716 44.1006C31.0002 44.4576 30.2928 44.5173 29.6705 44.2591C28.953 43.9614 28.3706 42.7986 27.2089 40.4751L21.8111 29.6794C21.6267 29.3107 21.5344 29.1271 21.4113 28.9674C21.302 28.8256 21.1759 28.6979 21.0341 28.5886C20.878 28.4682 20.6975 28.378 20.3452 28.2019L9.52468 22.7916C7.20112 21.6299 6.03924 21.0484 5.74152 20.3309C5.48331 19.7086 5.5422 19.0006 5.89919 18.4292C6.31083 17.7704 7.55241 17.3876 10.0353 16.6237L37.7324 8.10149C39.6844 7.50087 40.6608 7.2008 41.3201 7.44285C41.8944 7.65369 42.3472 8.106 42.558 8.6803C42.7999 9.33931 42.4996 10.3152 41.8996 12.2653L41.8984 12.2682Z" stroke="#85C1BE" stroke-width="3" stroke-linecap="round" stroke-linejoin="round"/>
</svg>
