<svg width="50" height="50" viewBox="0 0 50 50" fill="none" xmlns="http://www.w3.org/2000/svg">
<path d="M12.5 15.0001V34.7609C12.5 37.5964 12.5 39.0139 12.9252 39.8815C13.7134 41.4896 15.4408 42.4138 17.216 42.1776C18.1738 42.0501 19.3534 41.2637 21.7127 39.6908L21.7184 39.6871C22.6535 39.0636 23.1211 38.7519 23.6103 38.579C24.5088 38.2614 25.4891 38.2614 26.3875 38.579C26.8777 38.7522 27.3472 39.0652 28.2861 39.6912C30.6454 41.264 31.8264 42.0498 32.7841 42.1773C34.5593 42.4134 36.2866 41.4896 37.0748 39.8815C37.5 39.014 37.5 37.5959 37.5 34.7609V14.9932C37.5 12.6642 37.5 11.498 37.0463 10.6076C36.6468 9.82358 36.0077 9.18662 35.2237 8.78715C34.3324 8.33301 33.1673 8.33301 30.8337 8.33301H19.1671C16.8335 8.33301 15.6659 8.33301 14.7746 8.78715C13.9906 9.18662 13.3536 9.82358 12.9541 10.6076C12.5 11.4989 12.5 12.6665 12.5 15.0001Z" stroke="#85C1BE" stroke-width="3" stroke-linecap="round" stroke-linejoin="round"/>
</svg>
