<svg width="50" height="50" viewBox="0 0 50 50" fill="none" xmlns="http://www.w3.org/2000/svg">
<path d="M4.8645 21.5351C4.2119 20.9316 4.56639 19.8405 5.4491 19.7359L17.9565 18.2523C18.3163 18.2097 18.6288 17.9838 18.7805 17.6548L24.056 6.21775C24.4283 5.41059 25.5758 5.41044 25.9481 6.2176L31.2236 17.6546C31.3753 17.9835 31.6857 18.2101 32.0455 18.2527L44.5536 19.7359C45.4363 19.8405 45.7898 20.9319 45.1372 21.5354L35.8912 30.0874C35.6252 30.3334 35.5068 30.6995 35.5774 31.0548L38.0313 43.4083C38.2045 44.2802 37.2766 44.9557 36.501 44.5215L25.5107 38.3681C25.1946 38.1911 24.8105 38.1919 24.4944 38.3689L13.503 44.52C12.7274 44.9541 11.7978 44.2802 11.971 43.4083L14.4253 31.0556C14.4959 30.7003 14.3778 30.3333 14.1118 30.0874L4.8645 21.5351Z" stroke="#85C1BE" stroke-width="3" stroke-linecap="round" stroke-linejoin="round"/>
</svg>
