<svg width="50" height="50" viewBox="0 0 50 50" fill="none" xmlns="http://www.w3.org/2000/svg">
<path d="M41.6668 11.6668C41.6668 10.5 41.666 9.91619 41.439 9.47054C41.2392 9.07854 40.9217 8.76006 40.5297 8.56032C40.0841 8.33325 39.4995 8.33325 38.3327 8.33325H11.666C10.4992 8.33325 9.91643 8.33325 9.47078 8.56032C9.07878 8.76006 8.7603 9.07854 8.56057 9.47054C8.3335 9.91619 8.3335 10.5 8.3335 11.6668V13.2027C8.3335 13.7123 8.3335 13.9673 8.39106 14.207C8.44209 14.4196 8.52648 14.6227 8.64071 14.8091C8.7695 15.0193 8.94997 15.1997 9.31006 15.5598L19.8574 26.1072C20.2177 26.4675 20.3969 26.6467 20.5257 26.8569C20.64 27.0433 20.7255 27.2471 20.7765 27.4596C20.8335 27.697 20.8335 27.9489 20.8335 28.4482V38.3562C20.8335 40.142 20.8335 41.0355 21.2096 41.5733C21.5381 42.0429 22.0448 42.3561 22.6117 42.4399C23.2609 42.5358 24.06 42.1369 25.6573 41.3382L27.324 40.5049C27.9928 40.1704 28.3265 40.0026 28.5708 39.7531C28.7869 39.5325 28.9522 39.2676 29.0529 38.9756C29.1668 38.6455 29.1668 38.2707 29.1668 37.5228V28.4637C29.1668 27.9541 29.1668 27.6994 29.2244 27.4596C29.2754 27.2471 29.3598 27.0433 29.474 26.8569C29.602 26.6481 29.7807 26.4694 30.1362 26.1138L30.1434 26.1072L40.6908 15.5598C41.0511 15.1995 41.2302 15.0193 41.3591 14.8091C41.4733 14.6227 41.5588 14.4196 41.6099 14.207C41.6668 13.9697 41.6668 13.7175 41.6668 13.2183V11.6668Z" stroke="#85C1BE" stroke-width="3" stroke-linecap="round" stroke-linejoin="round"/>
</svg>
