<svg width="50" height="50" viewBox="0 0 50 50" fill="none" xmlns="http://www.w3.org/2000/svg">
<path d="M6.25 25H16.6667M6.25 25C6.25 35.3553 14.6447 43.75 25 43.75M6.25 25C6.25 14.6447 14.6447 6.25 25 6.25M16.6667 25H33.3333M16.6667 25C16.6667 35.3553 20.3976 43.75 25 43.75M16.6667 25C16.6667 14.6447 20.3976 6.25 25 6.25M33.3333 25H43.75M33.3333 25C33.3333 14.6447 29.6024 6.25 25 6.25M33.3333 25C33.3333 35.3553 29.6024 43.75 25 43.75M43.75 25C43.75 14.6447 35.3553 6.25 25 6.25M43.75 25C43.75 35.3553 35.3553 43.75 25 43.75" stroke="#85C1BE" stroke-width="3" stroke-linecap="round" stroke-linejoin="round"/>
</svg>
