<svg width="50" height="50" viewBox="0 0 50 50" fill="none" xmlns="http://www.w3.org/2000/svg">
<path d="M41.6666 14.5833H37.1847C36.1482 14.5833 35.4167 13.5365 35.4167 12.5C35.4167 9.04822 32.6184 6.25 29.1667 6.25C25.7149 6.25 22.9167 9.04822 22.9167 12.5C22.9167 13.5365 22.1851 14.5833 21.1486 14.5833H16.6667C15.5161 14.5833 14.5833 15.5161 14.5833 16.6667V21.1486C14.5833 22.1851 13.5365 22.9167 12.5 22.9167C9.04822 22.9167 6.25 25.7149 6.25 29.1667C6.25 32.6184 9.04822 35.4167 12.5 35.4167C13.5365 35.4167 14.5833 36.1482 14.5833 37.1847V41.6667C14.5833 42.8173 15.5161 43.75 16.6667 43.75L41.6667 43.7501C42.8173 43.7501 43.75 42.8172 43.75 41.6666V37.1847C43.75 36.1482 42.7031 35.4167 41.6667 35.4167C38.2149 35.4167 35.4167 32.6184 35.4167 29.1667C35.4167 25.7149 38.2149 22.9167 41.6667 22.9167C42.7031 22.9167 43.75 22.1851 43.75 21.1486L43.7501 16.6667C43.7501 15.5161 42.8172 14.5833 41.6666 14.5833Z" stroke="#85C1BE" stroke-width="3" stroke-linecap="round" stroke-linejoin="round"/>
</svg>
