<svg width="50" height="50" viewBox="0 0 50 50" fill="none" xmlns="http://www.w3.org/2000/svg">
<path d="M28.3346 43.9084L39.7101 37.3407C40.9244 36.6396 41.5304 36.289 41.972 35.7986C42.3627 35.3646 42.6581 34.8535 42.8385 34.2982C43.042 33.672 43.042 32.9723 43.042 31.5767V18.4222C43.042 17.0265 43.042 16.3269 42.8385 15.7007C42.6581 15.1454 42.3627 14.6338 41.972 14.1999C41.5323 13.7116 40.9277 13.3625 39.7238 12.6675L28.3325 6.09073C27.1182 5.38962 26.5122 5.03978 25.8667 4.90258C25.2955 4.78117 24.7051 4.78117 24.1339 4.90258C23.4884 5.03978 22.8804 5.38962 21.6661 6.09073L10.2884 12.6596C9.07547 13.3599 8.46948 13.7098 8.02816 14.1999C7.63744 14.6338 7.34238 15.1454 7.16194 15.7007C6.95801 16.3283 6.95801 17.0298 6.95801 18.432V31.5674C6.95801 32.9696 6.95801 33.6706 7.16194 34.2982C7.34238 34.8535 7.63744 35.3646 8.02816 35.7986C8.46974 36.289 9.07618 36.6396 10.2905 37.3407L21.6661 43.9084C22.8804 44.6095 23.4884 44.9595 24.1339 45.0967C24.7051 45.2181 25.2955 45.2181 25.8667 45.0967C26.5122 44.9595 27.1202 44.6095 28.3346 43.9084Z" stroke="#85C1BE" stroke-width="3" stroke-linecap="round" stroke-linejoin="round"/>
<path d="M18.75 24.9994C18.75 28.4512 21.5482 31.2494 25 31.2494C28.4518 31.2494 31.25 28.4512 31.25 24.9994C31.25 21.5476 28.4518 18.7494 25 18.7494C21.5482 18.7494 18.75 21.5476 18.75 24.9994Z" stroke="#85C1BE" stroke-width="3" stroke-linecap="round" stroke-linejoin="round"/>
</svg>
