<svg width="50" height="50" viewBox="0 0 50 50" fill="none" xmlns="http://www.w3.org/2000/svg">
<path d="M8.3335 41.6672H41.6668M8.3335 41.6672V33.3339L25.0002 16.6672M8.3335 41.6672L16.6668 41.6672L33.3335 25.0005M25.0002 16.6672L30.9765 10.6909L30.9801 10.6873C31.8027 9.86466 32.2148 9.45259 32.6898 9.29825C33.1082 9.1623 33.559 9.1623 33.9774 9.29825C34.4521 9.45248 34.8637 9.86408 35.6852 10.6856L39.3098 14.3102C40.1348 15.1352 40.5475 15.5479 40.7021 16.0236C40.838 16.442 40.838 16.8927 40.702 17.3112C40.5476 17.7865 40.1355 18.1986 39.3116 19.0224L39.3098 19.0242L33.3335 25.0005M25.0002 16.6672L33.3335 25.0005" stroke="#85C1BE" stroke-width="3" stroke-linecap="round" stroke-linejoin="round"/>
</svg>
