<svg width="50" height="50" viewBox="0 0 50 50" fill="none" xmlns="http://www.w3.org/2000/svg">
<path d="M6.25 12.5002H6.28998M6.28998 12.5002H18.75M6.28998 12.5002C6.25 13.1551 6.25 13.9625 6.25 15.0006V35.0006C6.25 37.3341 6.25 38.4993 6.70414 39.3906C7.10361 40.1746 7.74057 40.8137 8.52458 41.2131C9.41501 41.6668 10.5813 41.6668 12.9103 41.6668L18.75 41.6668M6.28998 12.5002C6.33987 11.6828 6.45203 11.1029 6.70414 10.6081C7.10361 9.82406 7.74057 9.18711 8.52458 8.78764C9.41588 8.3335 10.5835 8.3335 12.9171 8.3335H37.0837C39.4173 8.3335 40.5824 8.3335 41.4737 8.78764C42.2578 9.18711 42.8968 9.82406 43.2963 10.6081C43.5484 11.1029 43.6604 11.6828 43.7102 12.5002M18.75 12.5002H43.7102M18.75 12.5002V41.6668M43.7102 12.5002H43.75M43.7102 12.5002C43.75 13.1537 43.75 13.9589 43.75 14.9937L43.75 35.0065C43.75 37.3356 43.75 38.5001 43.2963 39.3906C42.8968 40.1746 42.2578 40.8137 41.4737 41.2131C40.5833 41.6668 39.4188 41.6668 37.0898 41.6668H18.75" stroke="#85C1BE" stroke-width="3" stroke-linecap="round" stroke-linejoin="round"/>
</svg>
